:FULLY-SPECIFIED
:FORCE-ALL-JOINTS-BE-3DOF
:DEGREES
102
root 7.41261 16.666 -26.7174 4.34337 10.4231 -4.00877
lfemur -27.5991 -4.82182 -10.428
ltibia 39.4993 0 0
lfoot -18.7426 -2.81779 0
ltoes 15.9255 0 0
rfemur -31.3987 -9.86455 8.27869
rtibia 72.9826 0 0
rfoot 13.5955 20.1935 0
rtoes -9.13401 0 0
lowerback 0.456904 2.21089 0.987586
upperback -1.44581 2.99574 1.85252
thorax -1.78644 1.49922 1.28482
lowerneck -10.3917 -4.94245 2.41934
upperneck -0.816939 -6.85977 0.949629
head 1.43888 -3.39307 -0.401399
lclavicle 5.62188e-15 -2.78299e-15 0
lhumerus -47.0839 -7.74686 93.3408
lradius 48.4895 0 0
lwrist 16.0883 0 0
lhand 7.29072 8.64452 0
lfingers 7.12502 0 0
lthumb 32.5524 35.7381 0
rclavicle 5.62188e-15 -2.78299e-15 0
rhumerus -42.8787 0.0467803 -72.5221
rradius 50.7973 0 0
rwrist -2.79153 0 0
rhand -17.597 -13.0469 0
rfingers 7.12502 0 0
rthumb 8.65924 -42.8493 0
103
root 7.40525 16.6571 -26.7039 4.33394 10.4221 -3.96433
lfemur -27.4533 -4.83858 -10.3246
ltibia 39.3437 0 0
lfoot -18.7324 -2.90329 0
ltoes 15.9716 0 0
rfemur -31.4521 -9.96056 8.13377
rtibia 73.0451 0 0
rfoot 13.6022 20.329 0
rtoes -8.92816 0 0
lowerback 0.44699 2.18387 1.0104
upperback -1.43538 2.95981 1.79531
thorax -1.76792 1.48043 1.2119
lowerneck -10.402 -4.92698 2.44388
upperneck -0.791008 -6.8444 0.970455
head 1.44973 -3.38405 -0.398554
lclavicle 5.65756e-15 -2.74734e-15 0
lhumerus -47.1694 -7.92972 93.422
lradius 48.5856 0 0
lwrist 16.2153 0 0
lhand 7.54371 8.75757 0
lfingers 7.12502 0 0
lthumb 32.7874 35.759 0
rclavicle 5.65756e-15 -2.74734e-15 0
rhumerus -42.6781 0.0488267 -72.143
rradius 50.8778 0 0
rwrist -2.97226 0 0
rhand -17.5314 -13.1588 0
rfingers 7.12502 0 0
rthumb 8.72249 -44.7757 0
104
root 7.39653 16.6477 -26.6905 4.32551 10.409 -3.91813
lfemur -27.2937 -4.85474 -10.2181
ltibia 39.1732 0 0
lfoot -18.7328 -2.98906 0
ltoes 16.0299 0 0
rfemur -31.5012 -10.0574 7.98185
rtibia 73.0933 0 0
rfoot 13.5847 20.4586 0
rtoes -8.69312 0 0
lowerback 0.434152 2.15616 1.03246
upperback -1.42544 2.92306 1.7353
thorax -1.74856 1.46127 1.13641
lowerneck -10.4133 -4.90841 2.47048
upperneck -0.763415 -6.82525 0.990532
head 1.46123 -3.37309 -0.396155
lclavicle 5.67678e-15 -2.72295e-15 0
lhumerus -47.2589 -8.12491 93.5124
lradius 48.6801 0 0
lwrist 16.3434 0 0
lhand 7.80505 8.87929 0
lfingers 7.12502 0 0
lthumb 33.0297 35.7832 0
rclavicle 5.67678e-15 -2.72295e-15 0
rhumerus -42.4612 0.0421873 -71.7401
rradius 50.9559 0 0
rwrist -3.16046 0 0
rhand -17.4656 -13.2847 0
rfingers 7.12502 0 0
rthumb 8.78598 -46.7856 0
105
root 7.38648 16.6378 -26.6772 4.31809 10.3841 -3.8702
lfemur -27.1205 -4.87028 -10.1086
ltibia 38.9882 0 0
lfoot -18.7436 -3.07511 0
ltoes 16.1003 0 0
rfemur -31.5461 -10.1552 7.82315
rtibia 73.1275 0 0
rfoot 13.5434 20.5825 0
rtoes -8.4295 0 0
lowerback 0.41846 2.12779 1.05377
upperback -1.41598 2.88551 1.67253
thorax -1.72838 1.44175 1.05843
lowerneck -10.4255 -4.88679 2.49909
upperneck -0.7342 -6.8024 1.00988
head 1.47336 -3.36023 -0.39419
lclavicle 5.67994e-15 -2.70964e-15 0
lhumerus -47.3521 -8.33219 93.6119
lradius 48.773 0 0
lwrist 16.4727 0 0
lhand 8.07452 9.00951 0
lfingers 7.12502 0 0
lthumb 33.2794 35.8106 0
rclavicle 5.67994e-15 -2.70964e-15 0
rhumerus -42.2285 0.0271024 -71.3142
rradius 51.0316 0 0
rwrist -3.35594 0 0
rhand -17.3996 -13.4243 0
rfingers 7.12502 0 0
rthumb 8.84971 -48.8777 0
106
root 7.37514 16.6275 -26.6639 4.31166 10.3479 -3.82056
lfemur -26.9342 -4.88518 -9.9961
ltibia 38.7891 0 0
lfoot -18.7646 -3.16142 0
ltoes 16.1826 0 0
rfemur -31.5868 -10.2537 7.65784
rtibia 73.148 0 0
rfoot 13.4788 20.7006 0
rtoes -8.13787 0 0
lowerback 0.399984 2.09877 1.07433
upperback -1.407 2.84718 1.60708
thorax -1.7074 1.42186 0.978018
lowerneck -10.4385 -4.86221 2.52966
upperneck -0.7034 -6.77594 1.02853
head 1.48611 -3.34552 -0.392646
lclavicle 5.66744e-15 -2.70727e-15 0
lhumerus -47.4491 -8.5513 93.7201
lradius 48.8643 0 0
lwrist 16.603 0 0
lhand 8.35191 9.14803 0
lfingers 7.12502 0 0
lthumb 33.5361 35.841 0
rclavicle 5.66744e-15 -2.70727e-15 0
rhumerus -41.9802 0.00381235 -70.8656
rradius 51.1049 0 0
rwrist -3.5585 0 0
rhand -17.3333 -13.5772 0
rfingers 7.12502 0 0
rthumb 8.91367 -51.0505 0
107
root 7.36253 16.6168 -26.6506 4.3062 10.3004 -3.76923
lfemur -26.735 -4.89945 -9.88081
ltibia 38.5761 0 0
lfoot -18.7955 -3.24802 0
ltoes 16.2765 0 0
rfemur -31.6234 -10.353 7.48613
rtibia 73.1551 0 0
rfoot 13.3915 20.8131 0
rtoes -7.81885 0 0
lowerback 0.378792 2.0691 1.09415
upperback -1.39846 2.80807 1.53901
thorax -1.68563 1.40163 0.895242
lowerneck -10.4525 -4.83472 2.56213
upperneck -0.671056 -6.74595 1.04648
head 1.49945 -3.32899 -0.391512
lclavicle 5.63967e-15 -2.71565e-15 0
lhumerus -47.5496 -8.78199 93.8369
lradius 48.954 0 0
lwrist 16.7344 0 0
lhand 8.637 9.29464 0
lfingers 7.12502 0 0
lthumb 33.7997 35.8745 0
rclavicle 5.63967e-15 -2.71565e-15 0
rhumerus -41.7169 -0.0274425 -70.3951
rradius 51.176 0 0
rwrist -3.76795 0 0
rhand -17.2668 -13.7433 0
rfingers 7.12502 0 0
rthumb 8.97785 -53.3028 0
108
root 7.34869 16.6057 -26.6374 4.30172 10.2422 -3.71622
lfemur -26.5231 -4.91305 -9.76278
ltibia 38.3497 0 0
lfoot -18.8361 -3.3349 0
ltoes 16.3819 0 0
rfemur -31.6561 -10.453 7.30822
rtibia 73.1489 0 0
rfoot 13.2819 20.92 0
rtoes -7.47302 0 0
lowerback 0.354954 2.03881 1.11323
upperback -1.39037 2.76821 1.46837
thorax -1.6631 1.38105 0.810166
lowerneck -10.4672 -4.80442 2.59646
upperneck -0.637205 -6.71252 1.06377
head 1.51338 -3.3107 -0.390776
lclavicle 5.59704e-15 -2.73463e-15 0
lhumerus -47.6537 -9.02402 93.9622
lradius 49.0422 0 0
lwrist 16.8667 0 0
lhand 8.92959 9.44917 0
lfingers 7.12502 0 0
lthumb 34.07 35.911 0
rclavicle 5.59704e-15 -2.73463e-15 0
rhumerus -41.4388 -0.0664217 -69.9032
rradius 51.2448 0 0
rwrist -3.98408 0 0
rhand -17.2 -13.9221 0
rfingers 7.12502 0 0
rthumb 9.04225 -55.6331 0
109
root 7.33364 16.5942 -26.6242 4.2982 10.1733 -3.66157
lfemur -26.2989 -4.92598 -9.6421
ltibia 38.1102 0 0
lfoot -18.8862 -3.42205 0
ltoes 16.4985 0 0
rfemur -31.6849 -10.5538 7.12429
rtibia 73.1298 0 0
rfoot 13.1505 21.0215 0
rtoes -7.10097 0 0
lowerback 0.328539 2.0079 1.13155
upperback -1.3827 2.72761 1.39524
thorax -1.63982 1.36013 0.722858
lowerneck -10.4828 -4.77136 2.6326
upperneck -0.601888 -6.67574 1.08041
head 1.52788 -3.2907 -0.390426
lclavicle 5.53993e-15 -2.76405e-15 0
lhumerus -47.7612 -9.27711 94.0957
lradius 49.1289 0 0
lwrist 17.0001 0 0
lhand 9.22947 9.61141 0
lfingers 7.12502 0 0
lthumb 34.3467 35.9504 0
rclavicle 5.53993e-15 -2.76405e-15 0
rhumerus -41.1464 -0.112885 -69.3904
rradius 51.3114 0 0
rwrist -4.2067 0 0
rhand -17.133 -14.1133 0
rfingers 7.12502 0 0
rthumb 9.10687 -58.0402 0
110
root 7.31741 16.5823 -26.6111 4.29564 10.0942 -3.6053
lfemur -26.0627 -4.93822 -9.51885
ltibia 37.8578 0 0
lfoot -18.9456 -3.5095 0
ltoes 16.6261 0 0
rfemur -31.7099 -10.6552 6.93455
rtibia 73.098 0 0
rfoot 12.9979 21.1175 0
rtoes -6.70331 0 0
lowerback 0.299617 1.9764 1.14914
upperback -1.37544 2.68629 1.31967
thorax -1.6158 1.33889 0.633383
lowerneck -10.4991 -4.73562 2.67048
upperneck -0.565144 -6.63569 1.09643
head 1.54294 -3.26901 -0.390449
lclavicle 5.46876e-15 -2.80373e-15 0
lhumerus -47.872 -9.54104 94.2372
lradius 49.214 0 0
lwrist 17.1343 0 0
lhand 9.53642 9.78117 0
lfingers 7.12502 0 0
lthumb 34.6298 35.9926 0
rclavicle 5.46876e-15 -2.80373e-15 0
rhumerus -40.84 -0.166592 -68.8574
rradius 51.376 0 0
rwrist -4.4356 0 0
rhand -17.0658 -14.3168 0
rfingers 7.12502 0 0
rthumb 9.1717 -60.5226 0
111
root 7.30004 16.57 -26.598 4.29403 10.0051 -3.54742
lfemur -25.8147 -4.94975 -9.39313
ltibia 37.593 0 0
lfoot -19.0142 -3.59724 0
ltoes 16.7645 0 0
rfemur -31.7313 -10.7574 6.73919
rtibia 73.0538 0 0
rfoot 12.8244 21.2083 0
rtoes -6.28062 0 0
lowerback 0.268256 1.94431 1.16598
upperback -1.36858 2.64426 1.24172
thorax -1.59108 1.31732 0.541807
lowerneck -10.5163 -4.69726 2.71007
upperneck -0.52701 -6.59246 1.11183
head 1.55854 -3.24569 -0.390833
lclavicle 5.38391e-15 -2.85352e-15 0
lhumerus -47.9861 -9.81553 94.3865
lradius 49.2978 0 0
lwrist 17.2694 0 0
lhand 9.85023 9.95825 0
lfingers 7.12502 0 0
lthumb 34.9189 36.0375 0
rclavicle 5.38391e-15 -2.85352e-15 0
rhumerus -40.5201 -0.227303 -68.3047
rradius 51.4385 0 0
rwrist -4.6706 0 0
rhand -16.9984 -14.532 0
rfingers 7.12502 0 0
rthumb 9.23674 -63.0791 0
112
root 7.28156 16.5573 -26.5849 4.29335 9.90628 -3.48796
lfemur -25.5553 -4.96058 -9.26502
ltibia 37.3161 0 0
lfoot -19.0916 -3.68526 0
ltoes 16.9134 0 0
rfemur -31.749 -10.8601 6.53841
rtibia 72.9974 0 0
rfoot 12.6305 21.2938 0
rtoes -5.83349 0 0
lowerback 0.234527 1.91164 1.18207
upperback -1.3621 2.60154 1.16146
thorax -1.56566 1.29543 0.448195
lowerneck -10.5341 -4.65637 2.7513
upperneck -0.487527 -6.54614 1.12665
head 1.57466 -3.22079 -0.391567
lclavicle 5.28578e-15 -2.91324e-15 0
lhumerus -48.1032 -10.1003 94.5434
lradius 49.3801 0 0
lwrist 17.4053 0 0
lhand 10.1707 10.1425 0
lfingers 7.12502 0 0
lthumb 35.214 36.0852 0
rclavicle 5.28578e-15 -2.91324e-15 0
rhumerus -40.187 -0.294776 -67.7328
rradius 51.4991 0 0
rwrist -4.9115 0 0
rhand -16.9308 -14.7588 0
rfingers 7.12502 0 0
rthumb 9.30197 -65.7082 0
113
root 7.26199 16.5442 -26.5719 4.2936 9.79809 -3.42694
lfemur -25.2848 -4.97067 -9.13463
ltibia 37.0275 0 0
lfoot -19.1776 -3.77359 0
ltoes 17.0728 0 0
rfemur -31.7633 -10.9635 6.3324
rtibia 72.929 0 0
rfoot 12.4169 21.3741 0
rtoes -5.36253 0 0
lowerback 0.198499 1.87842 1.19743
upperback -1.35599 2.55814 1.07895
thorax -1.53956 1.27324 0.352614
lowerneck -10.5526 -4.61301 2.79413
upperneck -0.446733 -6.49681 1.14091
head 1.5913 -3.19434 -0.392638
lclavicle 5.17477e-15 -2.98275e-15 0
lhumerus -48.2233 -10.3952 94.7078
lradius 49.461 0 0
lwrist 17.542 0 0
lhand 10.4976 10.3336 0
lfingers 7.12502 0 0
lthumb 35.5148 36.1355 0
rclavicle 5.17477e-15 -2.98275e-15 0
rhumerus -39.8411 -0.368772 -67.1424
rradius 51.5578 0 0
rwrist -5.15809 0 0
rhand -16.863 -14.9968 0
rfingers 7.12502 0 0
rthumb 9.3674 -68.4086 0
114
root 7.24138 16.5308 -26.5589 4.29477 9.68081 -3.36438
lfemur -25.0034 -4.98002 -9.00204
ltibia 36.7274 0 0
lfoot -19.2721 -3.86221 0
ltoes 17.2423 0 0
rfemur -31.7742 -11.0674 6.12136
rtibia 72.849 0 0
rfoot 12.1839 21.4494 0
rtoes -4.86833 0 0
lowerback 0.16024 1.84465 1.21204
upperback -1.35023 2.51408 0.994254
thorax -1.51281 1.25075 0.25513
lowerneck -10.5719 -4.56725 2.8385
upperneck -0.404668 -6.44457 1.15462
head 1.60843 -3.1664 -0.394034
lclavicle 5.05128e-15 -3.06186e-15 0
lhumerus -48.3463 -10.6999 94.8795
lradius 49.5405 0 0
lwrist 17.6794 0 0
lhand 10.8307 10.5315 0
lfingers 7.12502 0 0
lthumb 35.8211 36.1883 0
rclavicle 5.05128e-15 -3.06186e-15 0
rhumerus -39.4827 -0.449051 -66.534
rradius 51.6146 0 0
rwrist -5.41018 0 0
rhand -16.7949 -15.2458 0
rfingers 7.12502 0 0
rthumb 9.43303 -71.1789 0
